<svg xmlns="http://www.w3.org/2000/svg" viewBox="0 0 360 64" role="img" aria-label="Gulf Breeze HVAC">
  <defs>
    <linearGradient id="gbWmCool" x1="12" y1="8" x2="52" y2="56" gradientUnits="userSpaceOnUse">
      <stop offset="0%" stop-color="#14b8a6"/>
      <stop offset="55%" stop-color="#0e7490"/>
      <stop offset="100%" stop-color="#0a2a3a"/>
    </linearGradient>
    <linearGradient id="gbWmFoam" x1="20" y1="18" x2="44" y2="46" gradientUnits="userSpaceOnUse">
      <stop offset="0%" stop-color="#e0f7fa"/>
      <stop offset="100%" stop-color="#38bdf8"/>
    </linearGradient>
  </defs>
  <g transform="translate(0,0)">
    <rect x="2" y="2" width="60" height="60" rx="16" fill="url(#gbWmCool)"/>
    <circle cx="32" cy="30" r="18" fill="#0d3d4f" opacity="0.35"/>
    <path d="M18 28c6-7 14-9 22-6" fill="none" stroke="#e0f7fa" stroke-width="2.4" stroke-linecap="round"/>
    <path d="M16 35c8-6 16-7 24-3" fill="none" stroke="#38bdf8" stroke-width="2.2" stroke-linecap="round" opacity="0.9"/>
    <path d="M18 42c7-5 14-5 20-2" fill="none" stroke="#14b8a6" stroke-width="2" stroke-linecap="round" opacity="0.85"/>
    <path d="M32 18c0 0 8 10 8 15.5a8 8 0 1 1-16 0C24 28 32 18 32 18z" fill="url(#gbWmFoam)"/>
    <circle cx="32" cy="35.5" r="2.2" fill="#0a2a3a" opacity="0.55"/>
  </g>
  <g fill="#0a2a3a" font-family="ui-sans-serif, system-ui, -apple-system, 'Segoe UI', sans-serif">
    <text x="78" y="30" font-size="22" font-weight="750" letter-spacing="-0.02em">Gulf Breeze</text>
    <text x="78" y="50" font-size="13" font-weight="600" letter-spacing="0.18em" fill="#0e7490">HVAC</text>
  </g>
</svg>
